<svg xmlns="http://www.w3.org/2000/svg" width="20" height="20" viewBox="0 0 20 20">
    <path fill="#9299A3" fill-rule="evenodd" d="M10 13.704c.82 0 1.483.663 1.483 1.481 0 .818-.664 1.482-1.483 1.482-.82 0-1.483-.664-1.483-1.482S9.18 13.704 10 13.704zm0-5.185c.82 0 1.483.663 1.483 1.481 0 .818-.664 1.481-1.483 1.481-.82 0-1.483-.663-1.483-1.481 0-.818.664-1.481 1.483-1.481zm0-5.186c.82 0 1.483.664 1.483 1.482S10.82 6.296 10 6.296c-.82 0-1.483-.663-1.483-1.481 0-.818.664-1.482 1.483-1.482z"/>
</svg>
