<svg xmlns="http://www.w3.org/2000/svg" width="20" height="20" viewBox="0 0 20 20">
    <path fill="#9299A3" fill-rule="evenodd" d="M12.958 3.333c.437 0 .855.175 1.16.483l2.068 2.067c.308.308.48.725.48 1.16 0 .436-.172.853-.48 1.16L8.638 15.75c-.465.537-1.125.867-1.882.92H3.333v-.667l.002-2.81c.057-.703.384-1.357.883-1.796l7.579-7.58c.307-.309.725-.483 1.161-.483zm-2.757 3.963l-5.07 5.07c-.27.24-.437.573-.464.88v2.09h2.042c.356-.025.688-.19.954-.495L12.704 9.8l-2.503-2.503zm2.757-2.63c-.08 0-.159.033-.216.09l-1.598 1.598 2.502 2.502 1.597-1.595c.058-.058.09-.136.09-.218 0-.081-.032-.16-.09-.217l-2.069-2.07c-.057-.057-.135-.09-.216-.09z"/>
</svg>
